<mxfile host="Electron" agent="Mozilla/5.0 (Windows NT 10.0; Win64; x64) AppleWebKit/537.36 (KHTML, like Gecko) draw.io/28.1.2 Chrome/138.0.7204.243 Electron/37.4.0 Safari/537.36" version="28.1.2">
  <diagram name="Page-1" id="CL9IrsY9EfrXR2W6TXMf">
    <mxGraphModel dx="2066" dy="1201" grid="1" gridSize="10" guides="1" tooltips="1" connect="1" arrows="1" fold="1" page="1" pageScale="1" pageWidth="850" pageHeight="1100" math="0" shadow="0">
      <root>
        <mxCell id="0" />
        <mxCell id="1" parent="0" />
        <mxCell id="eEdQ_6ur7yQa-f-2qNNx-1" value="User" style="shape=umlActor;verticalLabelPosition=bottom;verticalAlign=top;html=1;outlineConnect=0;" parent="1" vertex="1">
          <mxGeometry x="190" y="410" width="30" height="60" as="geometry" />
        </mxCell>
        <mxCell id="eEdQ_6ur7yQa-f-2qNNx-2" value="Ulink Assistance Webpage" style="ellipse;whiteSpace=wrap;html=1;" parent="1" vertex="1">
          <mxGeometry x="300" y="390" width="120" height="80" as="geometry" />
        </mxCell>
        <mxCell id="eEdQ_6ur7yQa-f-2qNNx-3" value="React SPA (Frontend)" style="whiteSpace=wrap;html=1;aspect=fixed;" parent="1" vertex="1">
          <mxGeometry x="500" y="390" width="80" height="80" as="geometry" />
        </mxCell>
        <mxCell id="eEdQ_6ur7yQa-f-2qNNx-4" value="NodeJS&lt;div&gt;(Backend API)&lt;/div&gt;" style="whiteSpace=wrap;html=1;aspect=fixed;" parent="1" vertex="1">
          <mxGeometry x="670" y="385" width="90" height="90" as="geometry" />
        </mxCell>
        <mxCell id="eEdQ_6ur7yQa-f-2qNNx-5" value="MongoDB" style="strokeWidth=2;html=1;shape=mxgraph.flowchart.database;whiteSpace=wrap;" parent="1" vertex="1">
          <mxGeometry x="772.5" y="240" width="90" height="110" as="geometry" />
        </mxCell>
        <mxCell id="eEdQ_6ur7yQa-f-2qNNx-6" value="OpenAI" style="ellipse;shape=cloud;whiteSpace=wrap;html=1;" parent="1" vertex="1">
          <mxGeometry x="890" y="400" width="120" height="80" as="geometry" />
        </mxCell>
        <mxCell id="eEdQ_6ur7yQa-f-2qNNx-8" value="OCR.space" style="ellipse;shape=cloud;whiteSpace=wrap;html=1;" parent="1" vertex="1">
          <mxGeometry x="600" y="690" width="120" height="80" as="geometry" />
        </mxCell>
        <mxCell id="eEdQ_6ur7yQa-f-2qNNx-9" value="" style="endArrow=classic;html=1;rounded=0;exitX=1;exitY=0.3333333333333333;exitDx=0;exitDy=0;exitPerimeter=0;entryX=0;entryY=0.5;entryDx=0;entryDy=0;" parent="1" source="eEdQ_6ur7yQa-f-2qNNx-1" target="eEdQ_6ur7yQa-f-2qNNx-2" edge="1">
          <mxGeometry width="50" height="50" relative="1" as="geometry">
            <mxPoint x="400" y="640" as="sourcePoint" />
            <mxPoint x="450" y="590" as="targetPoint" />
          </mxGeometry>
        </mxCell>
        <mxCell id="eEdQ_6ur7yQa-f-2qNNx-10" value="" style="shape=flexArrow;endArrow=classic;startArrow=classic;html=1;rounded=0;exitX=1;exitY=0.5;exitDx=0;exitDy=0;entryX=0;entryY=0.5;entryDx=0;entryDy=0;" parent="1" source="eEdQ_6ur7yQa-f-2qNNx-2" target="eEdQ_6ur7yQa-f-2qNNx-3" edge="1">
          <mxGeometry width="100" height="100" relative="1" as="geometry">
            <mxPoint x="460" y="370" as="sourcePoint" />
            <mxPoint x="560" y="270" as="targetPoint" />
          </mxGeometry>
        </mxCell>
        <mxCell id="eEdQ_6ur7yQa-f-2qNNx-11" value="" style="shape=flexArrow;endArrow=classic;startArrow=classic;html=1;rounded=0;exitX=1;exitY=0.5;exitDx=0;exitDy=0;entryX=0;entryY=0.5;entryDx=0;entryDy=0;" parent="1" source="eEdQ_6ur7yQa-f-2qNNx-3" target="eEdQ_6ur7yQa-f-2qNNx-4" edge="1">
          <mxGeometry width="100" height="100" relative="1" as="geometry">
            <mxPoint x="450" y="620" as="sourcePoint" />
            <mxPoint x="530" y="620" as="targetPoint" />
          </mxGeometry>
        </mxCell>
        <mxCell id="eEdQ_6ur7yQa-f-2qNNx-12" value="" style="shape=flexArrow;endArrow=classic;startArrow=classic;html=1;rounded=0;exitX=0.5;exitY=0;exitDx=0;exitDy=0;entryX=0;entryY=0.5;entryDx=0;entryDy=0;entryPerimeter=0;" parent="1" source="eEdQ_6ur7yQa-f-2qNNx-4" target="eEdQ_6ur7yQa-f-2qNNx-5" edge="1">
          <mxGeometry width="100" height="100" relative="1" as="geometry">
            <mxPoint x="680" y="330" as="sourcePoint" />
            <mxPoint x="770" y="330" as="targetPoint" />
          </mxGeometry>
        </mxCell>
        <mxCell id="eEdQ_6ur7yQa-f-2qNNx-13" value="Is Upload Docs?" style="rhombus;whiteSpace=wrap;html=1;" parent="1" vertex="1">
          <mxGeometry x="610" y="520" width="110" height="100" as="geometry" />
        </mxCell>
        <mxCell id="eEdQ_6ur7yQa-f-2qNNx-14" value="" style="endArrow=classic;html=1;rounded=0;exitX=0;exitY=1;exitDx=0;exitDy=0;entryX=0.5;entryY=0;entryDx=0;entryDy=0;" parent="1" source="eEdQ_6ur7yQa-f-2qNNx-4" target="eEdQ_6ur7yQa-f-2qNNx-13" edge="1">
          <mxGeometry width="50" height="50" relative="1" as="geometry">
            <mxPoint x="400" y="640" as="sourcePoint" />
            <mxPoint x="450" y="590" as="targetPoint" />
          </mxGeometry>
        </mxCell>
        <mxCell id="eEdQ_6ur7yQa-f-2qNNx-15" value="" style="endArrow=classic;html=1;rounded=0;exitX=0.5;exitY=1;exitDx=0;exitDy=0;entryX=0.567;entryY=0.125;entryDx=0;entryDy=0;entryPerimeter=0;" parent="1" source="eEdQ_6ur7yQa-f-2qNNx-13" target="eEdQ_6ur7yQa-f-2qNNx-8" edge="1">
          <mxGeometry width="50" height="50" relative="1" as="geometry">
            <mxPoint x="655" y="760" as="sourcePoint" />
            <mxPoint x="650" y="810" as="targetPoint" />
          </mxGeometry>
        </mxCell>
        <mxCell id="eEdQ_6ur7yQa-f-2qNNx-16" value="" style="endArrow=classic;html=1;rounded=0;exitX=1;exitY=0.5;exitDx=0;exitDy=0;entryX=0.07;entryY=0.4;entryDx=0;entryDy=0;entryPerimeter=0;" parent="1" source="eEdQ_6ur7yQa-f-2qNNx-4" target="eEdQ_6ur7yQa-f-2qNNx-6" edge="1">
          <mxGeometry width="50" height="50" relative="1" as="geometry">
            <mxPoint x="725" y="790" as="sourcePoint" />
            <mxPoint x="660" y="790" as="targetPoint" />
          </mxGeometry>
        </mxCell>
        <mxCell id="eEdQ_6ur7yQa-f-2qNNx-17" value="" style="endArrow=classic;html=1;rounded=0;exitX=1;exitY=0.5;exitDx=0;exitDy=0;entryX=1;entryY=1;entryDx=0;entryDy=0;" parent="1" source="eEdQ_6ur7yQa-f-2qNNx-13" target="eEdQ_6ur7yQa-f-2qNNx-4" edge="1">
          <mxGeometry width="50" height="50" relative="1" as="geometry">
            <mxPoint x="865" y="670" as="sourcePoint" />
            <mxPoint x="840" y="600" as="targetPoint" />
            <Array as="points">
              <mxPoint x="740" y="570" />
              <mxPoint x="760" y="570" />
            </Array>
          </mxGeometry>
        </mxCell>
        <mxCell id="eEdQ_6ur7yQa-f-2qNNx-18" value="NO" style="text;html=1;align=center;verticalAlign=middle;whiteSpace=wrap;rounded=0;" parent="1" vertex="1">
          <mxGeometry x="750" y="520" width="60" height="30" as="geometry" />
        </mxCell>
        <mxCell id="eEdQ_6ur7yQa-f-2qNNx-19" value="YES" style="text;html=1;align=center;verticalAlign=middle;whiteSpace=wrap;rounded=0;" parent="1" vertex="1">
          <mxGeometry x="660" y="640" width="60" height="30" as="geometry" />
        </mxCell>
        <mxCell id="eEdQ_6ur7yQa-f-2qNNx-20" value="Chat Response&amp;nbsp;" style="text;html=1;align=center;verticalAlign=middle;whiteSpace=wrap;rounded=0;" parent="1" vertex="1">
          <mxGeometry x="790" y="390" width="60" height="30" as="geometry" />
        </mxCell>
        <mxCell id="eEdQ_6ur7yQa-f-2qNNx-21" value="Render" style="text;html=1;align=center;verticalAlign=middle;whiteSpace=wrap;rounded=0;fontSize=34;" parent="1" vertex="1">
          <mxGeometry x="380" y="320" width="255" height="50" as="geometry" />
        </mxCell>
        <mxCell id="eEdQ_6ur7yQa-f-2qNNx-22" value="Atlas" style="text;html=1;align=center;verticalAlign=middle;whiteSpace=wrap;rounded=0;fontSize=34;" parent="1" vertex="1">
          <mxGeometry x="690" y="200" width="255" height="50" as="geometry" />
        </mxCell>
        <mxCell id="eEdQ_6ur7yQa-f-2qNNx-24" value="&lt;h1 style=&quot;margin-top: 0px;&quot;&gt;Ulink Assistant&lt;br&gt;&lt;/h1&gt;&lt;div&gt;Package to run consist of&lt;/div&gt;&lt;div&gt;&lt;br&gt;&lt;/div&gt;&lt;div&gt;1. Frontend (React JS)&lt;/div&gt;&lt;div&gt;&lt;br&gt;&lt;/div&gt;&lt;div&gt;2. Backend API (Node JS)&lt;/div&gt;&lt;div&gt;&lt;br&gt;&lt;/div&gt;&lt;div&gt;3. Database (MongoDB)&lt;/div&gt;&lt;div&gt;&lt;br&gt;&lt;/div&gt;&lt;div&gt;4. 3rd Party (OpenAI &amp;amp; OCR.space)&lt;/div&gt;" style="text;html=1;whiteSpace=wrap;overflow=hidden;rounded=0;" parent="1" vertex="1">
          <mxGeometry x="170" y="120" width="230" height="190" as="geometry" />
        </mxCell>
      </root>
    </mxGraphModel>
  </diagram>
</mxfile>
